<?xml version="1.0" encoding="UTF-8"?> <svg xmlns="http://www.w3.org/2000/svg" xmlns:xlink="http://www.w3.org/1999/xlink" xmlns:svgjs="http://svgjs.com/svgjs" version="1.1" width="512" height="512" x="0" y="0" viewBox="0 0 512 512" style="enable-background:new 0 0 512 512" xml:space="preserve"><g> <g xmlns="http://www.w3.org/2000/svg"> <g> <rect x="247.889" y="8.533" width="17.067" height="102.4" fill="#ff8300" data-original="#000000"></rect> </g> </g> <g xmlns="http://www.w3.org/2000/svg"> <g> <path d="M324.689,0h-68.267c-4.71,0-8.533,3.823-8.533,8.533v51.2c0,4.71,3.823,8.533,8.533,8.533h68.267 c4.719,0,8.533-3.823,8.533-8.533v-51.2C333.222,3.823,329.408,0,324.689,0z M316.156,51.2h-51.2V17.067h51.2V51.2z" fill="#ff8300" data-original="#000000"></path> </g> </g> <g xmlns="http://www.w3.org/2000/svg"> <g> <path d="M324.689,102.4H188.156c-75.281,0-136.533,61.252-136.533,136.533c0,4.71,3.823,8.533,8.533,8.533h392.533 c4.719,0,8.533-3.823,8.533-8.533C461.222,163.652,399.97,102.4,324.689,102.4z M68.988,230.4 c4.403-61.901,56.166-110.933,119.168-110.933h136.533c63.002,0,114.773,49.033,119.168,110.933H68.988z" fill="#ff8300" data-original="#000000"></path> </g> </g> <g xmlns="http://www.w3.org/2000/svg"> <g> <path d="M429.41,274.825c-11.716,8.986-28.083,8.986-39.834-0.026c-18.048-13.662-43.102-13.448-60.86,0.461 c-11.733,8.994-28.092,8.977-39.799-0.017c-17.852-13.636-42.778-13.645-60.629,0.008c-11.75,8.96-28.151,8.986-39.885,0 c-17.835-13.67-42.735-13.67-60.553,0c-11.733,8.969-28.134,8.986-39.723,0.128c-10.556-8.491-24.26-12.22-37.717-10.334 l2.432,16.896c8.695-1.254,17.69,1.195,24.747,6.861c17.843,13.662,42.778,13.653,60.629,0c11.716-8.986,28.083-8.986,39.808,0 c17.843,13.653,42.778,13.645,60.621,0.009c11.759-8.986,28.151-8.969,39.893-0.017c8.9,6.844,19.576,10.257,30.259,10.257 c10.701,0,21.419-3.43,30.379-10.308c11.708-9.19,28.194-9.353,40.055-0.367c17.835,13.662,42.735,13.67,60.621-0.051 c5.982-4.659,13.372-6.98,21.018-6.733l0.717-17.05C449.984,263.962,438.515,267.716,429.41,274.825z" fill="#ff8300" data-original="#000000"></path> </g> </g> <g xmlns="http://www.w3.org/2000/svg"> <g> <path d="M418.556,315.733H94.289c-23.526,0-42.667,19.14-42.667,42.667c0,23.526,19.14,42.667,42.667,42.667h324.267 c23.526,0,42.667-19.14,42.667-42.667C461.222,334.874,442.082,315.733,418.556,315.733z M418.556,384H94.289 c-14.114,0-25.6-11.486-25.6-25.6s11.486-25.6,25.6-25.6h324.267c14.114,0,25.6,11.486,25.6,25.6S432.67,384,418.556,384z" fill="#ff8300" data-original="#000000"></path> </g> </g> <g xmlns="http://www.w3.org/2000/svg"> <g> <path d="M452.689,418.133H60.156c-4.71,0-8.533,3.814-8.533,8.533v42.667c0,23.526,19.14,42.667,42.667,42.667h324.267 c23.526,0,42.667-19.14,42.667-42.667v-42.667C461.222,421.948,457.408,418.133,452.689,418.133z M444.156,469.333 c0,14.114-11.486,25.6-25.6,25.6H94.289c-14.114,0-25.6-11.486-25.6-25.6V435.2h375.467V469.333z" fill="#ff8300" data-original="#000000"></path> </g> </g> <g xmlns="http://www.w3.org/2000/svg"> <g> <path d="M396.48,317.372l-88.849,64.614l-88.849-64.614l-10.044,13.798l93.867,68.267c1.493,1.092,3.26,1.63,5.018,1.63 c1.758,0,3.524-0.538,5.026-1.63l93.867-68.267L396.48,317.372z" fill="#ff8300" data-original="#000000"></path> </g> </g> <g xmlns="http://www.w3.org/2000/svg"> <g> <rect x="299.089" y="136.533" width="17.067" height="17.067" fill="#ff8300" data-original="#000000"></rect> </g> </g> <g xmlns="http://www.w3.org/2000/svg"> <g> <rect x="247.889" y="136.533" width="17.067" height="17.067" fill="#ff8300" data-original="#000000"></rect> </g> </g> <g xmlns="http://www.w3.org/2000/svg"> <g> <rect x="196.689" y="136.533" width="17.067" height="17.067" fill="#ff8300" data-original="#000000"></rect> </g> </g> <g xmlns="http://www.w3.org/2000/svg"> <g> <rect x="273.489" y="170.667" width="17.067" height="17.067" fill="#ff8300" data-original="#000000"></rect> </g> </g> <g xmlns="http://www.w3.org/2000/svg"> <g> <rect x="222.289" y="170.667" width="17.067" height="17.067" fill="#ff8300" data-original="#000000"></rect> </g> </g> <g xmlns="http://www.w3.org/2000/svg"> <g> <rect x="171.089" y="170.667" width="17.067" height="17.067" fill="#ff8300" data-original="#000000"></rect> </g> </g> <g xmlns="http://www.w3.org/2000/svg"> <g> <rect x="324.689" y="170.667" width="17.067" height="17.067" fill="#ff8300" data-original="#000000"></rect> </g> </g> <g xmlns="http://www.w3.org/2000/svg"> </g> <g xmlns="http://www.w3.org/2000/svg"> </g> <g xmlns="http://www.w3.org/2000/svg"> </g> <g xmlns="http://www.w3.org/2000/svg"> </g> <g xmlns="http://www.w3.org/2000/svg"> </g> <g xmlns="http://www.w3.org/2000/svg"> </g> <g xmlns="http://www.w3.org/2000/svg"> </g> <g xmlns="http://www.w3.org/2000/svg"> </g> <g xmlns="http://www.w3.org/2000/svg"> </g> <g xmlns="http://www.w3.org/2000/svg"> </g> <g xmlns="http://www.w3.org/2000/svg"> </g> <g xmlns="http://www.w3.org/2000/svg"> </g> <g xmlns="http://www.w3.org/2000/svg"> </g> <g xmlns="http://www.w3.org/2000/svg"> </g> <g xmlns="http://www.w3.org/2000/svg"> </g> </g></svg> 